<svg width="20" height="20" viewBox="0 0 20 20" fill="none" xmlns="http://www.w3.org/2000/svg">
<path d="M10.6136 0.210687C10.4381 0.0741368 10.222 0 9.99965 0C9.77726 0 9.56121 0.0741368 9.38568 0.210687L1.15796 6.61046C0.797133 6.89115 0.505227 7.25059 0.304537 7.66133C0.103848 8.07207 -0.00031644 8.52324 7.22108e-07 8.98038V18.0001C7.22108e-07 18.5305 0.210707 19.0392 0.585767 19.4142C0.960826 19.7893 1.46952 20 1.99993 20H5.99979C6.53021 20 7.0389 19.7893 7.41396 19.4142C7.78902 19.0392 7.99972 18.5305 7.99972 18.0001V12.0003H11.9996V18.0001C11.9996 18.5305 12.2103 19.0392 12.5854 19.4142C12.9604 19.7893 13.4691 20 13.9995 20H17.9994C18.5298 20 19.0385 19.7893 19.4135 19.4142C19.7886 19.0392 19.9993 18.5305 19.9993 18.0001V8.98038C19.9994 8.52307 19.8949 8.0718 19.6939 7.66105C19.4928 7.2503 19.2005 6.89095 18.8393 6.61046L10.6136 0.210687Z" fill="#39A8E2"/>
</svg>
