<svg width="40" height="40" viewBox="0 0 40 40" fill="none" xmlns="http://www.w3.org/2000/svg">
<circle cx="20" cy="20" r="19.5" stroke="white"/>
<path d="M24.4237 30C16.4704 30 10 23.5296 10 15.5763C10.0014 14.2118 10.4995 12.8945 11.4012 11.8704C12.303 10.8463 13.5467 10.1856 14.9 10.0116C15.2444 9.97002 15.593 10.0411 15.8937 10.2141C16.1943 10.3871 16.4309 10.6528 16.568 10.9714L18.5805 15.667C18.6849 15.9098 18.7274 16.1748 18.7044 16.4382C18.6813 16.7016 18.5933 16.9551 18.4483 17.1761L16.782 19.7221L16.7818 19.7223C17.5342 21.2521 18.7751 22.4874 20.3081 23.2331L22.8166 21.5609C23.0382 21.4126 23.2934 21.3222 23.559 21.2978C23.8246 21.2734 24.092 21.3159 24.337 21.4213L29.0285 23.4319C29.3471 23.569 29.6129 23.8055 29.7859 24.1062C29.959 24.4068 30.03 24.7554 29.9884 25.0999C29.8145 26.4532 29.1537 27.697 28.1296 28.5988C27.1056 29.5005 25.7882 29.9986 24.4237 30ZM15.095 11.6029C14.1296 11.7282 13.2429 12.2005 12.6002 12.9317C11.9576 13.6628 11.603 14.6029 11.6026 15.5763C11.6065 18.9755 12.9585 22.2343 15.3621 24.6379C17.7657 27.0415 21.0245 28.3935 24.4237 28.3974C25.3981 28.3966 26.339 28.0411 27.0704 27.3973C27.8019 26.7535 28.274 25.8655 28.3985 24.899L23.7057 22.8944L21.1981 24.5666C20.9676 24.7205 20.7011 24.812 20.4246 24.832C20.1482 24.852 19.8713 24.7999 19.621 24.6808C17.7572 23.7776 16.2492 22.2766 15.3376 20.4169C15.2178 20.1681 15.1644 19.8926 15.1825 19.6171C15.2007 19.3416 15.2897 19.0754 15.4409 18.8445L17.1073 16.2983L15.095 11.6029Z" fill="white"/>
</svg>
