<svg width="120" height="95" viewBox="0 0 120 95" fill="none" xmlns="http://www.w3.org/2000/svg">
<g clip-path="url(#clip0_8_2471)">
<path d="M99.6757 42.5328C99.6568 59.6006 82.0531 73.4623 60.3873 73.467C38.698 73.4717 21.0281 59.5346 21.0895 42.4762C21.1509 25.3896 38.7782 11.542 60.4204 11.575C82.1145 11.608 99.6946 25.4697 99.6757 42.5328ZM39.9355 43.952C34.754 43.952 29.719 43.952 24.6603 43.952C25.1988 50.831 28.4248 56.7434 34.2203 61.7082C36.9551 60.2324 39.6284 58.7849 42.3963 57.2903C40.8565 53.0092 40.0913 48.5254 39.9355 43.952ZM80.962 43.9284C80.9289 44.0321 80.91 44.0746 80.91 44.117C80.6833 48.4783 80.0268 52.7924 78.5153 57.0074C78.3689 57.4176 78.6334 57.5402 78.9971 57.7288C81.1934 58.8792 83.3709 60.058 85.5483 61.232C85.8695 61.4064 86.1576 61.6091 86.4882 61.8166C92.4065 56.7198 95.6231 50.798 96.1615 43.9331C91.0368 43.9284 86.0206 43.9284 80.962 43.9284ZM96.1332 41.1089C95.5759 34.2299 92.3735 28.3269 86.5071 23.282C86.2332 23.4518 86.0159 23.6073 85.7797 23.7346C83.5645 24.9417 81.3635 26.1675 79.1152 27.3274C78.572 27.6055 78.402 27.813 78.5767 28.3128C79.7009 31.5047 80.3385 34.7627 80.6597 38.0631C80.7589 39.0674 80.8108 40.0764 80.8864 41.1089C85.9828 41.1089 91.0226 41.1089 96.1332 41.1089ZM24.6603 41.1042C29.752 41.1042 34.7965 41.1042 39.9307 41.1042C40.0724 36.5402 40.8518 32.0564 42.3538 27.8319C39.534 26.2995 36.87 24.8474 34.1636 23.3763C28.3964 28.3599 25.1941 34.2582 24.6603 41.1042ZM77.377 43.9426C72.257 43.9426 67.2266 43.9426 62.168 43.9426C62.168 47.3231 62.168 50.6612 62.168 54.0795C66.6268 54.2634 70.9297 54.9895 75.124 56.3002C76.5646 52.2313 77.2164 48.1435 77.377 43.9426ZM43.4118 43.9378C43.5629 48.1388 44.21 52.2407 45.6695 56.3049C49.8733 54.9612 54.162 54.2587 58.5736 54.0795C58.5736 50.6377 58.5736 47.2807 58.5736 43.9331C53.496 43.9378 48.4799 43.9378 43.4118 43.9378ZM43.3929 41.0901C48.513 41.0901 53.5433 41.0901 58.5736 41.0901C58.5736 37.7236 58.5736 34.4091 58.5736 31.038C54.0864 30.8682 49.7882 30.1233 45.6129 28.822C44.1817 32.8815 43.5535 36.9363 43.3929 41.0901ZM62.2058 31.0568C62.2058 34.4657 62.2058 37.7944 62.2058 41.1089C67.2833 41.1089 72.2947 41.1089 77.3581 41.1089C77.2117 36.9457 76.574 32.8862 75.1429 28.8314C70.9391 30.1374 66.6457 30.8824 62.2058 31.0568ZM74.1415 26.1251C73.5039 24.9652 72.9324 23.8101 72.2428 22.7021C70.7927 20.3588 69.0215 18.19 66.4331 16.5068C65.1909 15.7005 63.8306 15.064 62.2058 14.8094C62.2058 19.3168 62.2058 23.7818 62.2058 28.2515C65.3846 28.2798 71.1848 27.2519 74.1415 26.1251ZM58.6019 28.2798C58.6019 23.7582 58.6019 19.3121 58.6019 14.8141C56.9629 15.064 55.6073 15.6769 54.3982 16.4832C50.5345 19.0528 48.4327 22.4946 46.6803 26.1722C50.5062 27.417 54.4265 28.11 58.6019 28.2798ZM62.1774 70.2374C63.8589 69.9686 65.2003 69.3462 66.4284 68.5494C69.0451 66.8568 70.8258 64.6691 72.2806 62.3022C72.9465 61.2178 73.5133 60.091 74.1368 58.9594C70.2118 57.6958 66.3009 56.9933 62.1774 56.8566C62.1774 61.331 62.1774 65.7441 62.1774 70.2374ZM46.5528 58.9971C47.6769 60.7935 48.6547 62.5663 49.8591 64.24C51.2903 66.2297 53.0851 68.0167 55.6073 69.2378C56.5095 69.6716 57.525 69.9639 58.5783 70.3552C58.5783 65.7205 58.5783 61.2933 58.5783 56.8519C54.4643 57.0027 50.5581 57.6958 46.5528 58.9971ZM84.103 21.4291C79.9276 18.5766 75.4263 16.6058 70.4432 15.4836C71.7421 16.9735 73.1638 18.4257 74.321 19.9958C75.4782 21.5705 76.3709 23.2632 77.4667 25.0501C79.6111 23.8808 81.7886 22.6927 84.103 21.4291ZM50.5015 15.5025C45.3672 16.6152 40.8423 18.5672 36.8181 21.3442C38.8963 22.7728 41.0785 23.9845 43.511 24.9935C45.1925 21.4857 47.2943 18.2513 50.5015 15.5025ZM50.3645 69.5773C49.0703 68.0968 47.6533 66.6729 46.5103 65.1217C45.3483 63.5517 44.4556 61.8543 43.3504 60.0674C41.1966 61.2461 39.0239 62.4343 36.7614 63.6743C40.9179 66.5032 45.4003 68.4457 50.3645 69.5773ZM70.3062 69.5348C75.4027 68.4457 79.8945 66.5032 84.0463 63.6554C81.7602 62.406 79.5922 61.2225 77.3298 59.9872C75.5727 63.58 73.5086 66.8049 70.3062 69.5348Z" fill="#39A8E2"/>
<path d="M44.0213 54.2681L36.1948 29.666H43.4356L46.0665 39.3362C46.8364 42.1085 47.4929 44.7724 48.1164 47.9502H48.1873C48.773 44.9563 49.4673 42.1085 50.1994 39.4446L52.8681 29.6613H59.8869L51.8431 54.2634H44.0213V54.2681Z" fill="#DC2028" stroke="white" stroke-width="2" stroke-miterlimit="10"/>
<path d="M67.9355 35.2154H61.644V29.666H80.9481V35.2154H74.5481V54.2682H67.9307V35.2154H67.9355Z" fill="#DC2028" stroke="white" stroke-width="2" stroke-miterlimit="10"/>
<path d="M120 94.1936H80.792V78.5355H120L109.996 86.3622L120 94.1936Z" fill="#85D7ED"/>
<path d="M0 92.1332H39.2081V76.4751H0L10.0039 84.3018L0 92.1332Z" fill="#85D7ED"/>
<path d="M90.6399 78.5355H29.4023V94.1936H90.6399V78.5355Z" fill="#97E2FC"/>
<path d="M39.0333 91.6616V90.3132H40.5306V83.7359C40.2472 83.7359 39.9638 83.7454 39.6804 83.7642C39.397 83.7831 39.1278 83.8114 38.8633 83.8444V82.7222C39.3167 82.6327 39.7276 82.5242 40.1008 82.3922C40.4739 82.2602 40.8093 82.114 41.1116 81.9396H42.2074V90.3085H43.6999V91.6569H39.0333V91.6616Z" fill="#DC2028"/>
<path d="M51.0162 91.6616V90.3132H52.5135V83.7359C52.2301 83.7359 51.9467 83.7454 51.6633 83.7642C51.3799 83.7831 51.1107 83.8114 50.8462 83.8444V82.7222C51.2996 82.6327 51.7106 82.5242 52.0837 82.3922C52.4568 82.2649 52.7922 82.114 53.0945 81.9396H54.1903V90.3085H55.6828V91.6569H51.0162V91.6616Z" fill="#DC2028"/>
<path d="M61.9556 91.6616V89.936C62.1776 89.5682 62.4704 89.2004 62.8294 88.8374C63.1883 88.4744 63.7504 87.9934 64.5203 87.3947H64.525C65.9326 86.3008 66.6363 85.405 66.6363 84.693C66.6363 84.297 66.5135 83.9858 66.2632 83.7548C66.0129 83.5237 65.6822 83.4106 65.2571 83.4106C64.8179 83.4106 64.4542 83.5473 64.1613 83.8161C63.8685 84.0848 63.6985 84.4479 63.6465 84.9005L62.0075 84.5987C62.1681 83.7689 62.5365 83.1183 63.1222 82.6515C63.7079 82.1847 64.44 81.949 65.328 81.949C66.2349 81.949 66.9717 82.2083 67.5385 82.7316C68.1053 83.255 68.384 83.9339 68.384 84.7732C68.384 85.372 68.2092 85.9236 67.8597 86.4375C67.5102 86.9515 66.8914 87.5314 65.9987 88.1915C65.8287 88.3188 65.5925 88.4932 65.2902 88.7148C64.3833 89.3702 63.8543 89.8464 63.7032 90.1481H68.332V91.671H61.9556V91.6616Z" fill="#DC2028"/>
<path d="M73.9385 91.6616V89.936C74.1605 89.5682 74.4533 89.2004 74.8123 88.8374C75.1713 88.4744 75.7333 87.9934 76.5032 87.3947H76.508C77.9155 86.3008 78.6193 85.405 78.6193 84.693C78.6193 84.297 78.4965 83.9858 78.2461 83.7548C77.9958 83.5237 77.6652 83.4106 77.2401 83.4106C76.8008 83.4106 76.4371 83.5473 76.1443 83.8161C75.8514 84.0848 75.6814 84.4479 75.6294 84.9005L73.9904 84.5987C74.151 83.7689 74.5194 83.1183 75.1051 82.6515C75.6908 82.1847 76.4229 81.949 77.3109 81.949C78.2178 81.949 78.9546 82.2083 79.5214 82.7316C80.0882 83.255 80.3669 83.9339 80.3669 84.7732C80.3669 85.372 80.1921 85.9236 79.8426 86.4375C79.4931 86.9515 78.8743 87.5314 77.9816 88.1915C77.8116 88.3188 77.5754 88.4932 77.2731 88.7148C76.3663 89.3702 75.8372 89.8464 75.6861 90.1481H80.3149V91.671H73.9385V91.6616Z" fill="#DC2028"/>
<path d="M17.2872 38.9165L9.29541 39.5813L9.79608 37.3983L12.9087 37.271C13.8014 37.2286 14.6563 37.2145 15.6577 37.2475L15.6624 37.2239C14.798 36.842 13.9809 36.4365 13.2252 36.031L10.4479 34.5506L10.9344 32.4336L17.8304 36.5591L17.2872 38.9165Z" fill="#DC2028"/>
<path d="M18.0005 30.6419L19.4222 31.7781L18.5295 33.6971L12.5356 28.473L13.6881 26.0024L21.576 27.1623L20.6408 29.1614L18.8318 28.8549L18.0005 30.6419ZM17.3487 28.4777L15.9553 28.2184C15.516 28.1383 14.8784 28.0063 14.425 27.9308L14.4155 27.9497C14.7698 28.2373 15.2988 28.6098 15.6436 28.8832L16.7488 29.7602L17.3487 28.4777Z" fill="#DC2028"/>
<path d="M22.4878 25.7479L16.5459 20.9623L18.0621 19.0858L20.6504 19.6138C21.5054 19.7647 22.5775 20.0617 23.4844 20.3588L23.508 20.3305C22.6531 19.7883 21.7935 19.1565 20.9008 18.4351L19.498 17.3083L20.6741 15.8561L26.6207 20.6417L25.2698 22.3154L22.4736 21.7355C21.5857 21.5563 20.4662 21.297 19.5263 21.0047L19.498 21.0377C20.334 21.6412 21.2409 22.339 22.2139 23.1217L23.6686 24.2957L22.4878 25.7479Z" fill="#DC2028"/>
<path d="M28.283 11.6741L26.6677 12.7632L25.7041 11.3346L30.6683 7.99646L31.6318 9.42506L29.9834 10.5331L33.2897 15.4318L31.5893 16.5775L28.283 11.6741Z" fill="#DC2028"/>
<path d="M35.3631 5.67664L36.4636 8.26982L38.7497 7.30327L37.6492 4.7101L39.5385 3.90857L42.5236 10.929L40.6343 11.7305L39.4535 8.94876L37.1674 9.91531L38.3482 12.6971L36.4589 13.4986L33.4785 6.47817L35.3631 5.67664Z" fill="#DC2028"/>
<path d="M46.2034 8.09069L46.194 9.90591L44.1299 10.3963L44.503 2.46585L47.1622 1.82935L51.1581 8.71776L49.009 9.23168L48.1211 7.62863L46.2034 8.09069ZM47.4929 6.23303L46.8316 4.98359C46.6191 4.59226 46.3309 4.00761 46.1042 3.60685L46.0806 3.61156C46.0712 4.06891 46.1089 4.71013 46.1137 5.15333V6.56307L47.4929 6.23303Z" fill="#DC2028"/>
<path d="M53.0001 8.4491L52.1924 0.862885L54.5918 0.608282L56.0466 2.81012C56.5425 3.51735 57.0904 4.4839 57.525 5.33729L57.558 5.33258C57.3408 4.34245 57.1802 3.29104 57.0621 2.15476L56.8732 0.367824L58.7341 0.1698L59.5418 7.7513L57.4022 7.97761L55.8388 5.59661C55.3381 4.84223 54.7335 3.87097 54.2754 2.99872L54.2328 3.00343C54.3982 4.02184 54.5399 5.15341 54.6721 6.39342L54.8705 8.25107L53.0001 8.4491Z" fill="#DC2028"/>
<path d="M64.4068 0.16502L64.1801 2.97508L66.6551 3.1731L66.8818 0.363045L68.927 0.528065L68.3129 8.13314L66.2677 7.96812L66.5086 4.95532L64.0336 4.7573L63.7927 7.7701L61.7476 7.60508L62.3616 0L64.4068 0.16502Z" fill="#DC2028"/>
<path d="M79.1295 10.9384C78.813 10.9856 78.0714 10.9149 77.2118 10.6272C74.5054 9.71728 73.8819 7.6286 74.5337 5.70022C75.3981 3.14948 77.703 2.47997 79.8616 3.21077C80.6882 3.48895 81.3116 3.88028 81.5572 4.1396L80.6645 5.5352C80.3953 5.29945 79.9891 5.02128 79.4081 4.82325C78.3029 4.45078 77.1126 4.78082 76.6119 6.25657C76.168 7.57673 76.6733 8.65172 78.0053 9.10435C78.4682 9.25994 79.0208 9.34952 79.3609 9.33538L79.1295 10.9384Z" fill="#DC2028"/>
<path d="M88.6796 11.7919C87.4799 13.9372 85.4347 14.5831 83.3706 13.4374C81.3018 12.287 81.0279 10.0993 82.0623 8.25106C83.1486 6.30382 85.2788 5.46457 87.3287 6.60557C89.4778 7.80314 89.6762 10.0003 88.6796 11.7919ZM83.9752 9.26475C83.2762 10.5189 83.3895 11.5939 84.2492 12.0748C85.1088 12.5557 86.0865 11.9947 86.7572 10.7877C87.3996 9.64194 87.3665 8.4868 86.4974 8.00117C85.6567 7.5344 84.6601 8.03889 83.9752 9.26475Z" fill="#DC2028"/>
<path d="M88.4246 15.2432C88.8544 14.6868 89.5393 14.602 90.0778 15.0169C90.6257 15.4365 90.7012 16.0966 90.2761 16.6671C89.8463 17.2234 89.1803 17.3224 88.6135 16.8887C88.0703 16.4738 87.9948 15.7995 88.4246 15.2432Z" fill="#DC2028"/>
<path d="M89.6338 19.2509C90.7249 18.6945 91.7498 18.058 92.6567 17.3696L94.2059 18.6804C93.0487 19.2886 91.8679 19.7742 90.6918 20.0948L89.6338 19.2509Z" fill="#DC2028"/>
<path d="M99.9732 16.8651L101.263 18.4587L96.6527 22.1788L98.4995 24.456L97.1675 25.531L94.0312 21.6601L99.9732 16.8651Z" fill="#DC2028"/>
<path d="M103.341 24.2438L102.325 22.5842L103.794 21.6884L106.916 26.7851L105.447 27.6809L104.413 25.993L99.3638 29.0718L98.2964 27.3226L103.341 24.2438Z" fill="#DC2028"/>
<path d="M108.173 29.4915C108.522 30.0431 108.905 30.8305 109.25 31.665C109.807 33.0276 109.939 33.9659 109.741 34.8617C109.524 35.8565 108.848 36.7193 107.549 37.2521C106.104 37.8462 104.947 37.6812 104.125 37.2097C103.209 36.6816 102.458 35.6302 101.891 34.2488C101.522 33.3482 101.329 32.707 101.234 32.3298L108.173 29.4915ZM103.388 33.65C103.407 33.7537 103.478 33.9329 103.53 34.0554C104.021 35.286 105.07 35.9225 106.661 35.2672C108.045 34.7014 108.362 33.617 107.89 32.476C107.771 32.1836 107.672 32.0045 107.611 31.9196L103.388 33.65Z" fill="#DC2028"/>
<path d="M29.4023 78.5355L39.2079 76.4751V78.5355H29.4023Z" fill="#70C3D6"/>
<path d="M90.5975 78.5355L80.792 76.4751V78.5355H90.5975Z" fill="#70C3D6"/>
</g>
<defs>
<clipPath id="clip0_8_2471">
<rect width="120" height="94.1936" fill="white"/>
</clipPath>
</defs>
</svg>
