<svg width="30" height="30" viewBox="0 0 30 30" fill="none" xmlns="http://www.w3.org/2000/svg">
    <path d="M14.9854 0.939941C22.7518 0.939941 29.0479 7.2359 29.0479 15.0024C29.0479 22.769 22.7518 29.0649 14.9854 29.0649C7.21887 29.0649 0.922852 22.7689 0.922852 15.0024C0.922852 7.23596 7.21875 0.939941 14.9854 0.939941ZM6.3675 23.6203C8.50445 25.7508 11.358 27.0093 14.3722 27.1507C17.3865 27.2921 20.3453 26.3063 22.6724 24.3853C24.9994 22.4642 26.5279 19.7456 26.9599 16.7592C27.392 13.7728 26.6968 10.7325 25.0096 8.23065C23.3225 5.72884 20.7644 3.94478 17.8337 3.22608C14.903 2.50738 11.8097 2.90554 9.15656 4.34297C6.5034 5.7804 4.48045 8.15412 3.48186 11.0016C2.48327 13.8491 2.5806 16.9664 3.75486 19.7461C4.36687 21.1944 5.25415 22.5101 6.3675 23.6203Z" fill="#39A8E2"/>
    <path d="M15.959 9.66723L11.5613 14.0649H22.4922V15.9399H11.5613L15.959 20.3376L14.6332 21.6634L7.97219 15.0024L14.6332 8.34143L15.959 9.66723Z" fill="#39A8E2"/>
</svg>
