<svg width="30" height="30" viewBox="0 0 30 30" fill="none" xmlns="http://www.w3.org/2000/svg">
    <path d="M14.9854 0.940002C22.7518 0.940002 29.0479 7.23596 29.0479 15.0025C29.0479 22.769 22.7518 29.065 14.9854 29.065C7.21887 29.065 0.922852 22.769 0.922852 15.0025C0.922852 7.23602 7.21875 0.940002 14.9854 0.940002V0.940002ZM6.3675 23.6204C8.50445 25.7508 11.358 27.0094 14.3722 27.1508C17.3865 27.2922 20.3453 26.3063 22.6724 24.3853C24.9994 22.4643 26.5279 19.7457 26.9599 16.7593C27.392 13.7728 26.6968 10.7325 25.0096 8.23071C23.3225 5.7289 20.7644 3.94484 17.8337 3.22614C14.903 2.50744 11.8097 2.9056 9.15656 4.34303C6.50341 5.78046 4.48045 8.15418 3.48186 11.0017C2.48327 13.8492 2.5806 16.9665 3.75486 19.7461C4.36687 21.1944 5.25415 22.5102 6.3675 23.6204V23.6204Z" fill="white"/>
    <path d="M15.959 9.66723L11.5613 14.0649H22.4922V15.9399H11.5613L15.959 20.3376L14.6332 21.6634L7.97218 15.0024L14.6332 8.34143L15.959 9.66723V9.66723Z" fill="white"/>
</svg>
