<svg width="30" height="30" viewBox="0 0 30 30" fill="none" xmlns="http://www.w3.org/2000/svg" style="-webkit-transform: rotate(180deg); -moz-transform: rotate(180deg); -o-transform: rotate(180deg); -ms-transform: rotate(180deg);    transform: rotate(180deg);">
<path d="M15.0146 0.939941C7.24816 0.939941 0.952148 7.2359 0.952148 15.0024C0.952148 22.769 7.24816 29.0649 15.0146 29.0649C22.7811 29.0649 29.0771 22.7689 29.0771 15.0024C29.0771 7.23596 22.7812 0.939941 15.0146 0.939941ZM23.6325 23.6203C21.4956 25.7508 18.642 27.0093 15.6278 27.1507C12.6135 27.2921 9.65466 26.3063 7.32763 24.3853C5.0006 22.4642 3.47213 19.7456 3.04005 16.7592C2.60797 13.7728 3.30323 10.7325 4.99036 8.23065C6.67749 5.72884 9.23563 3.94478 12.1663 3.22608C15.097 2.50738 18.1903 2.90554 20.8434 4.34297C23.4966 5.7804 25.5196 8.15412 26.5181 11.0016C27.5167 13.8491 27.4194 16.9664 26.2451 19.7461C25.6331 21.1944 24.7458 22.5101 23.6325 23.6203Z" fill="#39A8E2"/>
<path d="M14.041 9.66723L18.4387 14.0649H7.50781V15.9399H18.4387L14.041 20.3376L15.3668 21.6634L22.0278 15.0024L15.3668 8.34143L14.041 9.66723Z" fill="#39A8E2"/>
</svg>
