<svg width="28" height="29" viewBox="0 0 28 29" fill="none" xmlns="http://www.w3.org/2000/svg">
<path d="M14.8591 0.894937C14.6133 0.703767 14.3109 0.599976 13.9995 0.599976C13.6882 0.599976 13.3857 0.703767 13.1399 0.894937L1.62114 9.85463C1.11599 10.2476 0.707317 10.7508 0.426352 11.3258C0.145387 11.9009 -0.000443016 12.5325 1.01095e-06 13.1725V25.8001C1.01095e-06 26.5427 0.29499 27.2548 0.820073 27.7799C1.34516 28.305 2.05732 28.6 2.7999 28.6H8.39971C9.14229 28.6 9.85445 28.305 10.3795 27.7799C10.9046 27.2548 11.1996 26.5427 11.1996 25.8001V17.4004H16.7994V25.8001C16.7994 26.5427 17.0944 27.2548 17.6195 27.7799C18.1446 28.305 18.8567 28.6 19.5993 28.6H25.1991C25.9417 28.6 26.6539 28.305 27.179 27.7799C27.704 27.2548 27.999 26.5427 27.999 25.8001V13.1725C27.9991 12.5323 27.8529 11.9005 27.5714 11.3254C27.29 10.7504 26.8808 10.2473 26.3751 9.85463L14.8591 0.894937Z" fill="white"/>
</svg>
